{"title":"S.W.A.T. Fire Fight 2011 DVDrip English Klam","uid":6508855,"size":1470351080,"categoryP":"video","categoryS":"movies","magnet":"?xt=urn:btih:63157d39d22b14842de1929d222857580812b14f&amp;dn=S.W.A.T.+Fire+Fight+2011+DVDrip+English+Klam&amp;tr=udp%3A%2F%2Ftracker.openbittorrent.com%3A80&amp;tr=udp%3A%2F%2Fopen.demonii.com%3A1337&amp;tr=udp%3A%2F%2Ftracker.coppersurfer.tk%3A6969&amp;tr=udp%3A%2F%2Fexodus.desync.com%3A6969","seeders":0,"leechers":1,"uploader":"Klambake","files":-1,"time":1309547758,"description":"With: Gabriel Macht, Robert Patrick and Kristanna Loken\n\nLAPD Luitenant Paul Cutler wordt overgeplaatst naar Detroit om er een lokaal SWAT-team aan een training te onderwerpen. Hij wordt echter het nieuwe doelwit van een moorddadig genie dat beschermd wordt door overheidsfunctionarissen. Paul zal nu alles op alles moeten zetten om niet aan hem ten prooi te vallen.\n\nLAPD Lieutenant Paul Cutler is transferred to Detroit to make a local SWAT team to a training ...\n\n------------------ Dutch Friends ------------------\nYou can find my Friends at: http://www.Film-Test.nl \n------ They got my dutchs subs ---- and more ------\n\nGeneral:\n\nComplete name                    : S.W.A.T\\Firefight.avi\nFormat                           : AVI\nFormat/Info                      : Audio Video Interleave\nFile size                        : 1.37 GiB\nDuration                         : 1h 24mn\nOverall bit rate                 : 2 303 Kbps\n\nVideo:\n\nFormat                           : MPEG-4 Visual\nFormat profile                   : Simple@L3\nFormat settings, BVOP            : No\nFormat settings, QPel            : No\nFormat settings, GMC             : No warppoints\nFormat settings, Matrix          : Default (H.263)\nCodec ID                         : XVID\nCodec ID/Hint                    : XviD\nDuration                         : 1h 24mn\nBit rate                         : 1 844 Kbps\nWidth                            : 704 pixels\nHeight                           : 396 pixels\nDisplay aspect ratio             : 16:9\nFrame rate                       : 25.000 fps\nColor space                      : YUV\nChroma subsampling               : 4:2:0\nBit depth                        : 8 bits\nScan type                        : Progressive\nBits/(Pixel*Frame)               : 0.265\nStream size                      : 1.09 GiB (80%)\nWriting library                  : XviD 1.1.2 (UTC 2006-11-01)\n\nAudio:\n\nFormat                           : AC-3\nFormat/Info                      : Audio Coding 3\nMode extension                   : CM (complete main)\nCodec ID                         : 2000\nDuration                         : 1h 24mn\nBit rate mode                    : Constant\nBit rate                         : 448 Kbps\nChannel(s)                       : 6 channels\nChannel positions                : Front: L C R, Side: L R, LFE\nSampling rate                    : 48.0 KHz\nBit depth                        : 16 bits\nStream size                      : 272 MiB (19%)\nAlignment                        : Aligned on interleaves\nInterleave, duration             : 32 ms (0.80 video frame)\nInterleave, preload duration     : 640 ms\n","torrent":{"xt":"urn:btih:63157d39d22b14842de1929d222857580812b14f","amp;dn":"S.W.A.T.+Fire+Fight+2011+DVDrip+English+Klam","amp;tr":["udp%3A%2F%2Ftracker.openbittorrent.com%3A80","udp%3A%2F%2Fopen.demonii.com%3A1337","udp%3A%2F%2Ftracker.coppersurfer.tk%3A6969","udp%3A%2F%2Fexodus.desync.com%3A6969"],"infoHash":"63157d39d22b14842de1929d222857580812b14f","infoHashBuffer":{"type":"Buffer","data":[99,21,125,57,210,43,20,132,45,225,146,157,34,40,87,88,8,18,177,79]},"announce":[],"urlList":[]}}